<svg width="200" height="141" viewBox="0 0 200 141" fill="none" xmlns="http://www.w3.org/2000/svg">
  <path d="M48.8164 66.2009C49.5045 66.207 50.1834 66.359 50.8081 66.6469C51.4327 66.9349 51.9887 67.3521 52.4392 67.8708L55.3516 65.4335C54.5542 64.4735 53.5547 63.7 52.4241 63.1679C51.2935 62.6358 50.0594 62.358 48.8092 62.3542C44.058 62.3542 40.2095 65.784 40.2095 70.4573C40.2095 75.1307 44.0556 78.5344 48.8092 78.5344C50.0595 78.5308 51.2936 78.2531 52.4242 77.721C53.5549 77.1888 54.5543 76.4153 55.3516 75.4552L52.432 73.0178C51.9813 73.5362 51.4252 73.9532 50.8007 74.2411C50.1761 74.5289 49.4973 74.6812 48.8092 74.6877C46.4336 74.6877 44.5094 72.9041 44.5094 70.4455C44.5048 69.8826 44.6135 69.3245 44.8289 68.8042C45.0444 68.2839 45.3623 67.812 45.7638 67.4163C46.1653 67.0206 46.6423 66.7091 47.1666 66.5004C47.6909 66.2916 48.2519 66.1898 48.8164 66.2009ZM57.0336 78.3188H61.3334V62.5887H57.0336V78.3188ZM63.1341 62.5887V66.4709H67.3889V78.3141H71.6887V66.4709H75.8555L73.5916 62.5887H63.1341ZM87.047 62.5887L83.5834 68.7046L80.1197 62.5887H75.5039L81.4572 72.7454V78.3188H85.7119V72.7454L91.6652 62.5887H87.047Z" fill="#004D76"/>
  <path d="M97.2787 74.4367V62.5935H92.9789V78.3236H103.277L101.013 74.4414L97.2787 74.4367ZM124.624 62.3566C123.353 62.3453 122.094 62.6063 120.932 63.122C119.771 63.6377 118.734 64.3961 117.892 65.3459C117.046 64.3955 116.006 63.6369 114.841 63.1213C113.677 62.6056 112.415 62.3449 111.14 62.3566C106.318 62.3566 102.448 66.0114 102.448 70.5024C102.448 74.9933 106.318 78.6386 111.14 78.6386C112.414 78.651 113.675 78.3917 114.839 77.8781C116.004 77.3646 117.044 76.6088 117.892 75.6613C118.736 76.608 119.773 77.3636 120.935 77.8772C122.096 78.3908 123.354 78.6504 124.624 78.6386C129.466 78.6386 133.338 75.0052 133.338 70.5119C133.338 66.0186 129.471 62.3637 124.624 62.3637V62.3566ZM111.14 74.792C110.574 74.7954 110.013 74.6868 109.49 74.4725C108.966 74.2581 108.491 73.9423 108.091 73.5433C107.69 73.1443 107.374 72.67 107.159 72.148C106.944 71.626 106.835 71.0667 106.838 70.5024C106.836 69.6506 107.087 68.8174 107.56 68.1082C108.033 67.399 108.707 66.8458 109.496 66.5188C110.285 66.1918 111.153 66.1056 111.991 66.2712C112.829 66.4368 113.599 66.8467 114.203 67.449C114.807 68.0512 115.218 68.8188 115.384 69.6543C115.55 70.4898 115.464 71.3556 115.136 72.1421C114.808 72.9286 114.253 73.6002 113.542 74.072C112.83 74.5437 111.995 74.7943 111.14 74.792ZM124.624 74.792C124.058 74.7954 123.497 74.6868 122.974 74.4725C122.45 74.2581 121.975 73.9423 121.574 73.5433C121.174 73.1443 120.858 72.67 120.643 72.148C120.428 71.626 120.319 71.0667 120.322 70.5024C120.32 69.6513 120.572 68.8188 121.045 68.1104C121.518 67.4019 122.191 66.8495 122.979 66.5229C123.768 66.1963 124.635 66.1104 125.473 66.276C126.31 66.4416 127.079 66.8512 127.683 67.453C128.286 68.0548 128.697 68.8217 128.863 69.6565C129.029 70.4913 128.943 71.3565 128.616 72.1425C128.288 72.9284 127.734 73.5997 127.023 74.0714C126.313 74.5431 125.478 74.7938 124.624 74.792ZM155.959 69.022C152.994 67.9608 151.749 68.1409 151.749 67.0134C151.749 66.471 152.314 66.0422 153.469 66.0422C154.007 66.0239 154.542 66.1258 155.035 66.3406C155.529 66.5554 155.968 66.8775 156.32 67.2834L159.151 64.8698C158.132 63.5362 156.32 62.3637 153.31 62.3637C150.369 62.3637 147.651 63.9649 147.651 67.0797C147.651 69.472 149.1 70.8056 151.295 71.618C153.559 72.4754 155.598 72.5655 155.598 73.6929C155.598 74.484 154.804 74.8228 153.493 74.8228C152.73 74.8279 151.976 74.655 151.292 74.3177C150.608 73.9804 150.013 73.4882 149.554 72.8805L146.52 75.2041C147.516 76.7627 149.62 78.5439 153.493 78.5439C157.859 78.5439 159.783 76.4453 159.783 73.5579C159.783 71.4806 158.767 70.0144 155.959 69.022ZM140.973 62.5888H133.241L135.505 66.471H140.771C140.952 66.471 142.287 66.471 142.287 68.1859C142.287 69.8439 140.973 69.8794 140.793 69.8794H135.505V78.3189H139.807V73.7616H140.973C143.556 73.7616 146.52 71.5493 146.52 68.1859C146.52 64.396 143.261 62.5888 140.973 62.5888Z" fill="#004D76"/>
  <path d="M90.7601 58.8321C92.7046 55.1429 95.5403 51.9949 99.0111 49.6724C102.482 47.3499 106.478 45.9262 110.639 45.5299C113.686 42.3249 117.342 39.7557 121.394 37.9716C113.332 35.9218 104.794 36.9186 97.4259 40.7701C90.0573 44.6216 84.3785 51.0553 81.4833 58.8321H90.7601Z" fill="#004D76"/>
  <path d="M135.307 58.8321H144.61C142.71 53.7489 139.606 49.1983 135.564 45.5666C131.523 41.9349 126.661 39.3294 121.394 37.9716C117.344 39.7565 113.691 42.3257 110.646 45.5299C111.435 45.4541 112.231 45.4138 113.039 45.4138C117.624 45.4143 122.123 46.6646 126.048 49.0296C129.973 51.3945 133.175 54.7842 135.307 58.8321Z" fill="#004D76"/>
  <path d="M135.307 82.1655C133.364 85.851 130.533 88.9967 127.067 91.3196C123.601 93.6425 119.611 95.0697 115.454 95.4725C112.41 98.6793 108.756 101.25 104.705 103.036C107.43 103.731 110.232 104.082 113.046 104.08C127.499 104.08 139.85 94.9514 144.615 82.175L135.307 82.1655Z" fill="#004D76"/>
  <path d="M90.7482 82.1655H81.4833C83.3828 87.2513 86.4859 91.8045 90.5289 95.4381C94.5718 99.0716 99.435 101.678 104.705 103.036C108.756 101.25 112.41 98.6793 115.455 95.4725C114.659 95.5483 113.853 95.5909 113.036 95.5909C108.446 95.5935 103.943 94.3439 100.014 91.9774C96.0857 89.6109 92.8813 86.2178 90.7482 82.1655Z" fill="#004D76"/>
</svg>