<?xml version="1.0" encoding="utf-8"?>
<!-- Generator: Adobe Illustrator 25.1.0, SVG Export Plug-In . SVG Version: 6.00 Build 0)  -->
<svg version="1.1" id="Layer_1" xmlns="http://www.w3.org/2000/svg" xmlns:xlink="http://www.w3.org/1999/xlink" x="0px" y="0px"
	 viewBox="0 0 119.6 67.2" style="enable-background:new 0 0 119.6 67.2;" xml:space="preserve">
<style type="text/css">
	.st0{fill:#FFFFFF;}
</style>
<path class="st0" d="M8.6,29.3c0.7,0,1.4,0.2,2,0.4c0.6,0.3,1.2,0.7,1.6,1.2l2.9-2.4c-0.8-1-1.8-1.7-2.9-2.3s-2.4-0.8-3.6-0.8
	c-4.8,0-8.6,3.4-8.6,8.1c0,4.7,3.8,8.1,8.6,8.1c1.3,0,2.5-0.3,3.6-0.8c1.1-0.5,2.1-1.3,2.9-2.3l-2.9-2.4c-0.5,0.5-1,0.9-1.6,1.2
	c-0.6,0.3-1.3,0.4-2,0.4c-2.4,0-4.3-1.8-4.3-4.2c0-0.6,0.1-1.1,0.3-1.6c0.2-0.5,0.5-1,0.9-1.4C6,30.1,6.4,29.8,7,29.6
	C7.5,29.4,8,29.3,8.6,29.3z M16.8,41.4h4.3V25.7h-4.3V41.4z M22.9,25.7v3.9h4.3v11.8h4.3V29.5h4.2l-2.3-3.9H22.9z M46.8,25.7
	l-3.5,6.1l-3.5-6.1h-4.6l6,10.2v5.6h4.3v-5.6l6-10.2H46.8z"/>
<path class="st0" d="M57.1,37.5V25.7h-4.3v15.7h10.3l-2.3-3.9L57.1,37.5z M84.4,25.4c-1.3,0-2.5,0.2-3.7,0.8c-1.2,0.5-2.2,1.3-3,2.2
	c-0.8-1-1.9-1.7-3.1-2.2c-1.2-0.5-2.4-0.8-3.7-0.8c-4.8,0-8.7,3.7-8.7,8.1c0,4.5,3.9,8.1,8.7,8.1c1.3,0,2.5-0.2,3.7-0.8
	c1.2-0.5,2.2-1.3,3.1-2.2c0.8,0.9,1.9,1.7,3,2.2c1.2,0.5,2.4,0.8,3.7,0.8c4.8,0,8.7-3.6,8.7-8.1S89.3,25.4,84.4,25.4L84.4,25.4z
	 M70.9,37.9c-0.6,0-1.1-0.1-1.6-0.3c-0.5-0.2-1-0.5-1.4-0.9c-0.4-0.4-0.7-0.9-0.9-1.4c-0.2-0.5-0.3-1.1-0.3-1.6
	c0-0.9,0.2-1.7,0.7-2.4c0.5-0.7,1.1-1.3,1.9-1.6c0.8-0.3,1.7-0.4,2.5-0.2c0.8,0.2,1.6,0.6,2.2,1.2c0.6,0.6,1,1.4,1.2,2.2
	c0.2,0.8,0.1,1.7-0.2,2.5s-0.9,1.5-1.6,1.9C72.6,37.6,71.8,37.9,70.9,37.9z M84.4,37.9c-0.6,0-1.1-0.1-1.7-0.3
	c-0.5-0.2-1-0.5-1.4-0.9c-0.4-0.4-0.7-0.9-0.9-1.4c-0.2-0.5-0.3-1.1-0.3-1.6c0-0.9,0.2-1.7,0.7-2.4c0.5-0.7,1.1-1.3,1.9-1.6
	c0.8-0.3,1.7-0.4,2.5-0.2c0.8,0.2,1.6,0.6,2.2,1.2c0.6,0.6,1,1.4,1.2,2.2s0.1,1.7-0.2,2.5c-0.3,0.8-0.9,1.5-1.6,1.9
	C86.1,37.6,85.3,37.9,84.4,37.9z M115.7,32.1c-3-1.1-4.2-0.9-4.2-2c0-0.5,0.6-1,1.7-1c0.5,0,1.1,0.1,1.6,0.3
	c0.5,0.2,0.9,0.5,1.3,0.9l2.8-2.4c-1-1.3-2.8-2.5-5.8-2.5c-2.9,0-5.7,1.6-5.7,4.7c0,2.4,1.4,3.7,3.6,4.5c2.3,0.9,4.3,0.9,4.3,2.1
	c0,0.8-0.8,1.1-2.1,1.1c-0.8,0-1.5-0.2-2.2-0.5c-0.7-0.3-1.3-0.8-1.7-1.4l-3,2.3c1,1.6,3.1,3.3,7,3.3c4.4,0,6.3-2.1,6.3-5
	C119.6,34.6,118.6,33.1,115.7,32.1z M100.8,25.7H93l2.3,3.9h5.3c0.2,0,1.5,0,1.5,1.7c0,1.7-1.3,1.7-1.5,1.7h-5.3v8.4h4.3v-4.6h1.2
	c2.6,0,5.5-2.2,5.5-5.6C106.3,27.5,103.1,25.7,100.8,25.7z"/>
<path class="st0" d="M50.6,21.9c1.9-3.7,4.8-6.8,8.3-9.2c3.5-2.3,7.5-3.7,11.6-4.1c3-3.2,6.7-5.8,10.8-7.6c-8.1-2-16.6-1.1-24,2.8
	c-7.4,3.9-13,10.3-15.9,18.1H50.6z"/>
<path class="st0" d="M95.1,21.9h9.3c-1.9-5.1-5-9.6-9-13.3C91.3,5,86.5,2.4,81.2,1c-4,1.8-7.7,4.4-10.7,7.6c0.8-0.1,1.6-0.1,2.4-0.1
	c4.6,0,9.1,1.3,13,3.6C89.8,14.5,93,17.9,95.1,21.9z"/>
<path class="st0" d="M95.1,45.2c-1.9,3.7-4.8,6.8-8.2,9.2c-3.5,2.3-7.5,3.8-11.6,4.2c-3,3.2-6.7,5.8-10.7,7.6c2.7,0.7,5.5,1,8.3,1
	c14.5,0,26.8-9.1,31.6-21.9L95.1,45.2z"/>
<path class="st0" d="M50.5,45.2h-9.3c1.9,5.1,5,9.6,9,13.3c4,3.6,8.9,6.2,14.2,7.6c4.1-1.8,7.7-4.4,10.8-7.6
	c-0.8,0.1-1.6,0.1-2.4,0.1c-4.6,0-9.1-1.2-13-3.6C55.9,52.7,52.7,49.3,50.5,45.2z"/>
</svg>
