<svg width="209" height="118" viewBox="0 0 209 118" fill="none" xmlns="http://www.w3.org/2000/svg">
<g clip-path="url(#clip0)">
<path d="M15.464 51.4444C16.6586 51.4538 17.8377 51.7184 18.9234 52.2207C20.009 52.723 20.9765 53.4516 21.762 54.3584L26.8409 50.0748C25.4543 48.3879 23.7164 47.0287 21.7503 46.0935C19.7843 45.1583 17.6382 44.67 15.464 44.6631C7.19475 44.7006 0.5 50.7325 0.5 58.9416C0.5 67.1508 7.19475 73.1411 15.464 73.1411C17.6382 73.1342 19.7843 72.6459 21.7503 71.7107C23.7164 70.7755 25.4543 69.4163 26.8409 67.7294L21.762 63.4625C20.9784 64.373 20.0117 65.1055 18.926 65.6114C17.8403 66.1174 16.6602 66.3852 15.464 66.3973C11.3314 66.3973 7.97993 63.2627 7.97993 58.9416C7.96703 57.95 8.1521 56.9658 8.52416 56.0476C8.89622 55.1293 9.44769 54.2958 10.1458 53.5965C10.8439 52.8971 11.6744 52.3462 12.588 51.9765C13.5016 51.6068 14.4796 51.4259 15.464 51.4444ZM29.7544 72.7456H37.2385V45.1002H29.7544V72.7456ZM40.3668 45.1002V51.9231H47.7682V72.7373H55.2481V51.9231H62.4884L58.5501 45.1002H40.3668ZM81.9651 45.1002L75.944 55.8487L69.927 45.1002H61.885L72.2412 62.9463V72.7456H79.6426V62.9463L89.9988 45.1002H81.9651Z" fill="#004D76"/>
<path d="M99.7682 65.9233V45.1091H92.2842V72.7545H110.203L106.265 65.9316L99.7682 65.9233ZM147.334 44.6928C145.124 44.6767 142.936 45.1381 140.918 46.0458C138.9 46.9534 137.098 48.2863 135.635 49.9546C134.164 48.2834 132.355 46.9492 130.329 46.0423C128.303 45.1353 126.107 44.6765 123.89 44.697C115.501 44.697 108.769 51.1244 108.769 59.0171C108.769 66.9099 115.501 73.2957 123.89 73.2957C126.105 73.3192 128.299 72.8648 130.325 71.9629C132.35 71.0611 134.161 69.7327 135.635 68.0672C137.103 69.7313 138.907 71.0594 140.928 71.962C142.948 72.8646 145.137 73.3208 147.346 73.2999C155.773 73.2999 162.505 66.9141 162.505 59.0213C162.505 51.1285 155.76 44.7011 147.334 44.7011V44.6928ZM123.878 66.5477C122.894 66.5532 121.919 66.3621 121.009 65.9854C120.099 65.6087 119.272 65.0539 118.576 64.3532C117.881 63.6524 117.33 62.8196 116.956 61.9029C116.582 60.9863 116.392 60.004 116.398 59.013C116.394 57.5169 116.831 56.0532 117.653 54.8075C118.476 53.5618 119.647 52.5902 121.018 52.0157C122.39 51.4413 123.9 51.2899 125.356 51.5808C126.813 51.8717 128.152 52.5917 129.202 53.6496C130.252 54.7075 130.967 56.0557 131.256 57.5233C131.544 58.9908 131.394 60.5117 130.824 61.8932C130.254 63.2746 129.289 64.4544 128.052 65.2831C126.816 66.1117 125.363 66.5518 123.878 66.5477ZM147.334 66.5477C146.35 66.5538 145.374 66.3631 144.464 65.9866C143.553 65.6102 142.726 65.0555 142.03 64.3547C141.334 63.6538 140.783 62.8208 140.409 61.9039C140.034 60.987 139.844 60.0043 139.85 59.013C139.845 57.5159 140.282 56.051 141.104 54.8041C141.927 53.5572 143.098 52.5843 144.47 52.0089C145.842 51.4335 147.353 51.2815 148.811 51.572C150.269 51.8626 151.609 52.5827 152.66 53.641C153.711 54.6994 154.427 56.0483 154.716 57.5168C155.005 58.9852 154.855 60.5072 154.285 61.8896C153.714 63.2721 152.749 64.4528 151.512 65.2821C150.274 66.1113 148.82 66.5518 147.334 66.5477ZM201.842 56.3945C196.685 54.5296 194.52 54.8501 194.52 52.8645C194.52 51.9153 195.503 51.1577 197.512 51.1577C198.448 51.1262 199.379 51.3062 200.237 51.6843C201.095 52.0625 201.858 52.6293 202.471 53.3432L207.397 49.1221C205.624 46.7825 202.475 44.7178 197.239 44.7178C192.119 44.7178 187.395 47.536 187.395 53.0102C187.395 57.2146 189.912 59.5541 193.734 60.982C197.673 62.489 201.214 62.6471 201.214 64.6328C201.214 66.019 199.834 66.6143 197.553 66.6143C196.226 66.6232 194.915 66.3196 193.726 65.7276C192.536 65.1357 191.5 64.2718 190.701 63.205L185.424 67.2887C187.155 70.0237 190.821 73.1583 197.553 73.1583C205.153 73.1583 208.5 69.47 208.5 64.3914C208.5 60.7281 206.715 58.1513 201.842 56.4029V56.3945ZM175.778 45.0924H162.327L166.265 51.9153H175.423C175.737 51.9153 178.06 51.9153 178.06 54.9251C178.06 57.8391 175.778 57.9015 175.46 57.9015H166.265V72.7379H173.745V64.7327H175.778C180.266 64.7327 185.424 60.8446 185.424 54.9334C185.424 48.2895 179.754 45.1007 175.778 45.1007V45.0924Z" fill="#00B6ED"/>
<path d="M88.4245 38.4978C91.8093 32.0154 96.7427 26.4837 102.78 22.4016C108.817 18.3195 115.768 15.8154 123.006 15.1151C128.302 9.48381 134.657 4.96975 141.701 1.83566C127.677 -1.77259 112.823 -0.0232531 100.004 6.74641C87.1841 13.5161 77.3062 24.8267 72.2744 38.4978H88.4245Z" fill="#004D76"/>
<path d="M165.918 38.4981H182.105C178.797 29.5624 173.397 21.5632 166.363 15.1804C159.328 8.79751 150.868 4.21969 141.701 1.83594C134.657 4.97003 128.302 9.48408 123.006 15.1154C124.378 14.9864 125.766 14.9114 127.171 14.9114C135.151 14.9107 142.979 17.1078 149.808 21.2651C156.637 25.4224 162.208 31.3816 165.918 38.4981Z" fill="#00B6ED"/>
<path d="M165.922 79.5107C162.542 85.9901 157.614 91.5202 151.583 95.6023C145.552 99.6844 138.607 102.19 131.374 102.893C126.079 108.525 119.725 113.039 112.682 116.173C126.706 119.776 141.558 118.025 154.377 111.256C167.195 104.487 177.074 93.179 182.109 79.5107H165.922Z" fill="#004D76"/>
<path d="M88.4201 79.5107H72.2783C75.5874 88.4457 80.9884 96.4442 88.0225 102.827C95.0566 109.21 103.516 113.788 112.682 116.173C119.725 113.039 126.079 108.525 131.374 102.893C129.99 103.027 128.589 103.102 127.171 103.102C119.19 103.103 111.361 100.906 104.531 96.7478C97.7006 92.5897 92.1293 86.6289 88.4201 79.5107Z" fill="#00B6ED"/>
</g>
<defs>
<clipPath id="clip0">
<rect width="208" height="118" fill="white" transform="translate(0.5)"/>
</clipPath>
</defs>
</svg>
