<svg width="291" height="49" viewBox="0 0 291 49" fill="none" xmlns="http://www.w3.org/2000/svg">
<path d="M113.402 33.8032L111.877 22.7696L106.809 33.848H105.239L100.126 22.7696L98.646 33.8032H93.3086L96.224 14.6065H101.472L106.002 25.057L110.577 14.6065H115.824L118.74 33.8032H113.402Z" fill="black"/>
<path d="M131.119 26.4026C131.119 24.4739 129.728 23.0387 127.8 23.0387C125.871 23.0387 124.481 24.4739 124.481 26.4026C124.481 28.3312 125.871 29.7665 127.8 29.7665C129.728 29.7665 131.119 28.3312 131.119 26.4026ZM135.963 19.002V33.8032H132.016L131.567 32.7716C130.356 33.7583 128.831 34.3414 127.082 34.3414C122.552 34.3414 119.323 31.0223 119.323 26.4474C119.323 21.8725 122.552 18.5983 127.082 18.5983C128.831 18.5983 130.401 19.1814 131.612 20.1681L132.15 19.002H135.963Z" fill="black"/>
<path d="M148.521 29.3628V33.848H145.023C141.749 33.848 139.775 31.8297 139.775 28.5555V22.949H137.084V21.738L143.633 14.6514H144.664V19.002H148.387V22.949H144.799V27.6585C144.799 28.7349 145.427 29.3628 146.503 29.3628H148.521Z" fill="black"/>
<path d="M154.307 24.7879H160.317C159.869 23.3078 158.793 22.5005 157.268 22.5005C155.743 22.5005 154.711 23.3078 154.307 24.7879ZM165.206 27.6136H154.218C154.532 29.318 155.608 30.1702 157.223 30.1702C158.434 30.1702 159.42 29.632 159.914 28.7798H164.982C163.951 32.1437 160.945 34.2517 157.223 34.2517C152.603 34.2517 149.194 30.8878 149.194 26.3578C149.194 21.8277 152.603 18.4638 157.223 18.4638C161.977 18.4638 165.296 21.8726 165.296 26.2232C165.341 26.7166 165.296 27.1651 165.206 27.6136Z" fill="black"/>
<path d="M176.599 18.9123V23.5769H174.625C172.831 23.5769 172.069 24.3842 172.069 26.268V33.8032H166.956V19.002H170.364L171.172 20.6615C172.203 19.4505 173.504 18.9571 175.253 18.9571H176.599V18.9123Z" fill="black"/>
<path d="M177.899 12.8124H182.923V17.1631H177.899V12.8124ZM177.855 19.002H182.968V33.8032H177.855V19.002Z" fill="black"/>
<path d="M196.379 26.4026C196.379 24.4739 194.988 23.0387 193.059 23.0387C191.131 23.0387 189.74 24.4739 189.74 26.4026C189.74 28.3312 191.131 29.7665 193.059 29.7665C194.988 29.7665 196.379 28.3312 196.379 26.4026ZM201.267 19.002V33.8032H197.32L196.872 32.7716C195.661 33.7583 194.136 34.3414 192.387 34.3414C187.857 34.3414 184.627 31.0223 184.627 26.4474C184.627 21.8725 187.857 18.5983 192.387 18.5983C194.136 18.5983 195.706 19.1814 196.917 20.1681L197.455 19.002H201.267Z" fill="black"/>
<path d="M214.678 26.4026C214.678 24.4739 213.288 23.0387 211.359 23.0387C209.43 23.0387 208.04 24.4739 208.04 26.4026C208.04 28.3312 209.43 29.7665 211.359 29.7665C213.288 29.7665 214.678 28.3312 214.678 26.4026ZM219.567 19.002V33.8032H215.62L215.172 32.7716C213.961 33.7583 212.436 34.3414 210.686 34.3414C206.156 34.3414 202.927 31.0223 202.927 26.4474C202.927 21.8725 206.156 18.5983 210.686 18.5983C212.436 18.5983 214.005 19.1814 215.216 20.1681L215.755 19.002H219.567Z" fill="black"/>
<path d="M227.192 13.6646H222.079V33.848H227.192V13.6646Z" fill="black"/>
<path d="M229.748 12.8124H234.772V17.1631H229.748V12.8124ZM229.704 19.002H234.817V33.8032H229.704V19.002Z" fill="black"/>
<path d="M247.33 29.3628V33.848H243.832C240.558 33.848 238.584 31.8297 238.584 28.5555V22.949H235.893V21.738L242.486 14.6514H243.518V19.002H247.241V22.949H243.653V27.6585C243.653 28.7349 244.281 29.3628 245.357 29.3628H247.33Z" fill="black"/>
<path d="M259.53 26.4026C259.53 24.474 258.185 23.0836 256.346 23.0836C254.462 23.0836 253.161 24.4291 253.161 26.4026C253.161 28.3761 254.507 29.7217 256.346 29.7217C258.185 29.7217 259.53 28.3761 259.53 26.4026ZM248.048 26.4026C248.048 21.8277 251.502 18.5087 256.346 18.5087C261.145 18.5087 264.643 21.8277 264.643 26.4026C264.643 30.9775 261.145 34.2966 256.346 34.2966C251.502 34.2966 248.048 30.9775 248.048 26.4026Z" fill="black"/>
<path d="M275.946 18.9123V23.5769H273.973C272.178 23.5769 271.416 24.3842 271.416 26.268V33.8032H266.303V19.002H269.712L270.519 20.6615C271.551 19.4505 272.851 18.9571 274.6 18.9571H275.946V18.9123Z" fill="black"/>
<path d="M277.247 12.8124H282.27V17.1631H277.247V12.8124ZM277.202 19.002H282.315V33.8032H277.202V19.002Z" fill="black"/>
<path d="M27.3761 21.6931L29.6635 20.1682L24.8195 11.1081C24.371 10.2559 23.7879 9.53823 23.1151 9.04486H32.7135C33.5657 9.04486 34.1936 9.40368 34.5524 10.1213L37.3781 15.369L39.6655 13.8889L36.3016 21.6931H27.3761Z" fill="black"/>
<path d="M43.2985 36.6289C43.9713 36.0906 44.5544 35.4179 45.0029 34.5657L49.8469 25.5056L47.5595 23.9806H56.3505L59.8489 31.7848L57.6063 30.3496L54.7807 35.5973C54.377 36.3149 53.7491 36.6737 52.9417 36.6737H43.2985V36.6289Z" fill="black"/>
<path d="M39.5758 35.7318C38.0509 35.7318 36.6604 34.8797 35.898 33.4444L32.3546 26.7614L40.2038 21.8726L44.8684 30.5739L43.478 33.0856C43.0743 33.8929 42.2221 34.7451 41.6839 35.1039C41.0559 35.5076 40.3383 35.7318 39.5758 35.7318Z" fill="black"/>
<path d="M53.1212 19.9439L57.2924 12.1845C58.0549 10.7941 59.4453 9.89703 60.9703 9.89703C61.6879 9.89703 62.4055 10.1213 63.0334 10.4801C63.5717 10.7941 64.4239 11.6911 64.8275 12.4536L65.904 15.5035L60.9254 24.7879L53.1212 19.9439Z" fill="black"/>
<path d="M73.6185 38.8715L76.0854 37.7053L66.5319 11.108C66.0385 10.211 65.5003 9.49337 64.8275 9H74.4259C75.278 9 75.906 9.35882 76.3096 10.0764L84.5176 34.1171L86.9844 32.9958L82.4992 40.217L73.6185 38.8715Z" fill="black"/>
<path d="M17.2395 39.5442L24.9541 15.5932L23.7431 12.9469C23.3842 12.1396 22.6218 11.1977 22.0835 10.8389C21.5005 10.3904 20.7828 10.1661 20.0652 10.0764C18.5402 9.9867 17.105 10.7492 16.2976 12.0499L8 39.5442H17.2395Z" fill="black"/>
</svg>
